HIERARCHY
ROOT simHips
{
  OFFSET 6.13146 95.3961 -0.669452
  CHANNELS 6 Xposition Yposition Zposition Zrotation Xrotation Yrotation
  JOINT simSpine
  {
    OFFSET -0.000360269 21.3001 -0.0169217
    CHANNELS 3 Zrotation Xrotation Yrotation
    JOINT simLeftArm
    {
      OFFSET 13.5181 21.3012 -2.3511e-005
      CHANNELS 3 Zrotation Xrotation Yrotation
      JOINT simLeftForeArm
      {
        OFFSET 24.5783 0 -6.3921e-005
        CHANNELS 3 Zrotation Xrotation Yrotation
        JOINT simLeftHand
        {
          OFFSET 24.5783 0 0
          CHANNELS 3 Zrotation Xrotation Yrotation
          End Site
          {
            OFFSET 7.32568 1.52588e-005 0.0169305
          }
        }
      }
    }
    JOINT simHead
    {
      OFFSET 0 27.4458 -0.00488811
      CHANNELS 3 Zrotation Xrotation Yrotation
      End Site
      {
        OFFSET 0 0 0
      }
    }
    JOINT simRightArm
    {
      OFFSET -13.5174 21.3012 -1.52733e-005
      CHANNELS 3 Zrotation Xrotation Yrotation
      JOINT simRightForeArm
      {
        OFFSET -24.5783 -0.000552281 0.000112897
        CHANNELS 3 Zrotation Xrotation Yrotation
        JOINT simRightHand
        {
          OFFSET -24.5783 0 1.19926e-005
          CHANNELS 3 Zrotation Xrotation Yrotation
          End Site
          {
            OFFSET -7.32568 1.52588e-005 0.0169305
          }
        }
      }
    }
  }
  JOINT simRightUpLeg
  {
    OFFSET -8.44614 -9.41038 0.835682
    CHANNELS 3 Zrotation Xrotation Yrotation
    JOINT simRightLeg
    {
      OFFSET -3.23466e-005 -40.9639 0
      CHANNELS 3 Zrotation Xrotation Yrotation
      JOINT simRightFoot
      {
        OFFSET 0 -40.9639 0
        CHANNELS 3 Zrotation Xrotation Yrotation
        End Site
        {
          OFFSET 0.50614 -9.67405 14.6709
        }
      }
    }
  }
  JOINT simLeftUpLeg
  {
    OFFSET 8.44614 -9.41038 0.835681
    CHANNELS 3 Zrotation Xrotation Yrotation
    JOINT simLeftLeg
    {
      OFFSET -0.00018133 -40.964 6.2497e-005
      CHANNELS 3 Zrotation Xrotation Yrotation
      JOINT simLeftFoot
      {
        OFFSET 0 -40.9639 0
        CHANNELS 3 Zrotation Xrotation Yrotation
        End Site
        {
          OFFSET -0.50614 -9.67405 14.6709
        }
      }
    }
  }
}
MOTION
Frames:	13
Frame Time:	0.0333333
-23.4978 96.3723 162.611 3.58769 9.49793 -30.2942 -2.17163 5.34256 13.9082 -63.4832 -2.60532 3.74275 0.00692353 -0.000164088 -72.1066 -24.1292 -36.3752 -45.6674 1.50388 -16.2479 2.84835 64.5295 8.80673 37.549 0.00521671 6.21634e-006 78.2468 163.433 -13.5339 -165.77 -19.4111 9.34989 -29.3608 -0.000431372 9.76603 -0.0291206 28.429 -12.6497 6.87885 29.382 -42.3346 16.3623 -9.63559e-005 41.9454 -0.101016 -18.2807 -4.55401 -7.52983 
-24.0074 96.482 162.508 3.31689 7.54592 -30.5759 -1.6143 4.08699 14.1039 -63.8399 -3.00405 5.18906 0.00683516 -0.000155896 -73.0277 -24.9382 -36.69 -46.0063 0.886346 -13.7496 2.60352 63.5744 9.62822 37.7456 -0.012461 5.55844e-006 79.5056 163.35 -13.5019 -165.294 -19.861 11.4272 -28.5065 -0.000369454 9.18574 -0.0276003 28.3727 -12.7423 6.89416 28.2134 -39.7497 15.4117 -4.59674e-005 41.0301 -0.109345 -18.694 -4.51009 -7.51513 
-24.4678 96.5782 162.388 3.01954 5.68254 -30.9595 -0.902197 3.00088 14.2602 -64.1357 -3.45259 6.47537 0.00672092 -0.000146603 -74.0673 -25.4843 -37.1227 -46.2891 0.348797 -11.5783 2.47481 62.7718 10.1419 38.0609 -0.00194522 4.7065e-006 81.1283 163.725 -12.6235 -164.015 -20.3811 13.2921 -27.5601 -0.000211408 8.79698 -0.0259134 28.339 -12.867 6.93603 27.2768 -37.2353 14.7059 0.00153841 40.1888 -0.116128 -19.0645 -4.43682 -7.49539 
-24.8807 96.6606 162.233 2.76474 3.88399 -31.5036 -0.209349 2.14277 14.43 -64.3093 -3.97599 7.65667 0.00657987 -0.000135776 -75.2717 -25.7885 -37.6641 -46.1686 -0.524261 -9.48325 2.09146 62.1876 10.5385 38.5365 -0.00881785 3.88167e-006 82.6925 163.142 -11.4228 -163.515 -21.0556 14.8701 -26.5009 9.87585e-005 8.64252 -0.0240509 28.3523 -13.0569 7.02909 26.4956 -34.7925 14.2491 0.00263793 39.4084 -0.121444 -19.4082 -4.33794 -7.44163 
-25.2422 96.7237 162.011 2.51481 2.20526 -32.2007 0.484305 1.60254 14.5726 -64.4148 -4.67481 8.75521 0.0064113 -0.000123685 -76.609 -25.8955 -37.7969 -45.8133 -1.40559 -7.29497 2.00575 61.6657 10.8914 39.1255 -0.0120027 3.10976e-006 84.1514 162.7 -11.3755 -163.129 -21.8248 16.075 -25.3275 0.000582951 8.79282 -0.0220053 28.3915 -13.3605 7.19235 25.9152 -32.4869 14.0138 0.00334171 38.6995 -0.125335 -19.745 -4.20939 -7.33239 
-25.528 96.7782 161.745 2.25614 0.701589 -33.0373 1.27383 1.28582 14.6271 -64.5214 -5.47532 9.92696 0.00621451 -0.000110873 -78.018 -26.3981 -38.047 -45.7988 -2.23786 -5.35106 1.99898 61.2115 11.2035 39.777 -0.0148387 2.29746e-006 85.6825 162.77 -11.5454 -162.544 -22.6181 16.9502 -24.0289 0.00112547 9.08364 -0.0197557 28.4478 -13.7221 7.39185 25.4993 -30.3266 13.9519 0.00368677 38.0171 -0.12793 -20.0551 -4.06994 -7.14976 
-25.722 96.8253 161.392 2.02239 -0.523316 -33.9689 2.13994 1.15236 14.5053 -64.6387 -6.29258 11.1856 0.00598876 -9.77924e-005 -79.4489 -27.1141 -38.5626 -46.3334 -3.01681 -3.7394 2.42709 60.7554 11.4626 40.5142 -0.017339 1.3866e-006 87.3958 162.967 -11.6074 -162.293 -23.3604 17.3925 -22.7101 0.00168039 9.50791 -0.0172917 28.5522 -14.108 7.61962 25.2762 -28.4658 14.0608 0.00318408 37.3544 -0.128405 -20.3355 -3.86613 -6.88091 
-25.8067 96.8574 160.938 1.89008 -1.42822 -34.9242 2.96195 1.13281 14.1944 -64.6794 -7.01338 12.4874 0.00573309 -8.38627e-005 -80.9655 -27.3606 -39.1624 -46.7784 -3.62198 -2.5197 3.32005 60.1761 11.7452 41.257 -0.0195165 4.07191e-007 89.2355 162.655 -11.3291 -162.601 -24.0432 17.3584 -21.4886 0.00210719 10.051 -0.0140834 28.7546 -14.4933 7.88445 25.1956 -27.0586 14.3165 0.00294277 36.7593 -0.128402 -20.573 -3.57663 -6.53944 
-25.8848 96.8922 160.478 1.67851 -2.27423 -35.9091 3.61815 1.50746 13.7705 -64.5582 -7.61149 13.7086 0.00544698 -7.13992e-005 -82.317 -27.4382 -39.3887 -46.716 -4.12017 -1.40581 4.05831 59.6282 11.9942 41.9504 -0.0213841 -5.55903e-007 91.0437 162.51 -10.6143 -161.986 -24.6373 17.2934 -20.2432 0.00239844 10.5876 -0.0105525 28.944 -14.9033 8.15878 25.184 -25.6194 14.5833 0.00243113 36.0873 -0.127465 -20.7996 -3.24137 -6.18478 
-25.8542 96.9215 159.988 1.63026 -2.92137 -36.8801 4.04497 2.08321 13.2983 -64.4235 -8.13665 14.7329 0.0051294 -6.00595e-005 -83.5429 -28.2155 -40.0275 -46.771 -4.65551 -0.625066 4.58665 59.1018 12.046 42.6022 -0.0229548 -1.50286e-006 92.8227 162.685 -10.5893 -161.364 -25.3097 16.7895 -19.0875 0.00259271 11.382 -0.00689383 29.1872 -15.3541 8.48192 25.135 -24.5329 14.942 0.00185777 35.4541 -0.125581 -20.9512 -2.86012 -5.78362 
-25.6663 96.9345 159.455 1.73506 -3.23711 -37.7955 4.3249 2.76221 12.6791 -64.3718 -8.57364 15.8239 0.00477918 -4.75633e-005 -84.8904 -29.1967 -40.6525 -47.6812 -5.09851 -0.100064 5.35037 58.6319 11.8669 42.9773 -0.0242417 -2.75442e-006 95.1784 163.598 -11.2742 -160.028 -25.9486 15.7131 -18.1159 0.00262931 12.4906 -0.00316524 29.4838 -15.8465 8.8561 25.158 -23.9885 15.4265 0.00135096 34.9516 -0.12268 -21.0204 -2.45202 -5.34304 
-25.3407 96.9166 158.87 1.97669 -3.1758 -38.6153 4.59611 3.42376 11.9789 -64.437 -8.78642 16.7069 0.00439577 -3.77104e-005 -85.9509 -29.8545 -40.5268 -49.1607 -5.60925 0.648452 6.34125 58.1702 11.5423 43.081 -0.0252576 -4.08976e-006 97.7016 163.844 -11.2702 -159.245 -26.4624 14.0454 -17.4013 0.00221378 13.9355 0.00149782 29.8076 -16.3949 9.28084 25.3657 -24.0837 16.0898 -7.37221e-005 34.6921 -0.116708 -21.0127 -2.02523 -4.93774 
-24.8906 96.8746 158.26 2.35351 -2.76726 -39.3484 4.80259 4.12462 11.3093 -64.5804 -8.84901 17.2463 0.00397802 -2.8347e-005 -86.9574 -29.9691 -40.4559 -49.8249 -6.23164 1.17728 7.10053 57.7044 11.0565 42.9775 -0.0260156 -5.19164e-006 99.7948 163.124 -10.865 -159.555 -26.86 11.874 -16.9171 0.00143238 15.6238 0.00618786 30.1342 -16.9502 9.71809 25.7522 -24.7438 16.9423 6.41099e-005 34.6446 -0.108837 -20.9115 -1.57672 -4.57303 
